<?xml version="1.0" encoding="UTF-8" standalone="no"?>
<svg
   height="1006"
   viewBox="-215.19 -86.608 1122.096 402.473"
   width="2805.24"
   version="1.1"
   id="svg6"
   sodipodi:docname="marvel-logo.svg"
   inkscape:version="1.1.2 (b8e25be833, 2022-02-05)"
   xmlns:inkscape="http://www.inkscape.org/namespaces/inkscape"
   xmlns:sodipodi="http://sodipodi.sourceforge.net/DTD/sodipodi-0.dtd"
   xmlns="http://www.w3.org/2000/svg"
   xmlns:svg="http://www.w3.org/2000/svg">
  <defs
     id="defs10" />
  <sodipodi:namedview
     id="namedview8"
     pagecolor="#505050"
     bordercolor="#ffffff"
     borderopacity="1"
     inkscape:pageshadow="0"
     inkscape:pageopacity="0"
     inkscape:pagecheckerboard="1"
     showgrid="false"
     inkscape:zoom="0.16"
     inkscape:cx="1340.625"
     inkscape:cy="-287.5"
     inkscape:window-width="1366"
     inkscape:window-height="705"
     inkscape:window-x="-8"
     inkscape:window-y="-8"
     inkscape:window-maximized="1"
     inkscape:current-layer="svg6"
     fit-margin-top="0"
     fit-margin-left="0"
     fit-margin-right="0"
     fit-margin-bottom="0" />
  <path
     d="M -215.29178,-86.608 H 907.00776 V 315.865 H -215.29178 Z"
     fill="#ed1d24"
     id="path2"
     style="stroke-width:1.05938" />
  <path
     style="fill:#ffffff;stroke-width:1.1479"
     d="M -177.80679,111.7651 V -59.4168 h 39.62428 c 36.75709,0 39.664842,0.1451 40.183912,2.0038 0.30791,1.1021 6.4275,39.7544 13.59921,85.8941 7.3313,47.1655 13.39872,83.0059 13.86005,81.8697 0.69309,-1.7073 27.38886,-166.4097 27.37758,-168.9088 -0.002,-0.4724 17.86191,-0.8588 39.69797,-0.8588 h 39.70173 l 0.16343,154.2928 c 0.0891,84.861 0.53411,152.2317 0.98746,149.7126 0.48616,-2.7017 0.8912,4.2247 0.98751,16.8892 l 0.16339,21.4693 h -32.79722 -32.79721 l -0.10928,-77.5758 -0.10929,-77.5757 -13.07614,76.717 c -7.1919,42.1943 -13.09796,77.1034 -13.12444,77.5757 -0.0241,0.4723 -7.71984,0.8588 -17.09618,0.8588 h -17.04759 l -13.160322,-77.0007 -13.16024,-77.0007 -0.29575,77.0007 -0.29584,77.0007 h -31.63832 -31.6383 z"
     id="path5916" />
  <path
     style="fill:#ffffff;stroke-width:1.597"
     d="M 318.01096,109.0412 V -59.4167 l 39.6529,0.2064 c 35.3598,0.1843 40.6935,0.558 49.2656,3.453 22.1175,7.4696 38.3698,19.0941 51.5592,36.8774 8.1258,10.9559 8.0429,11.3595 3.9582,-19.2778 l -2.812,-21.0925 34.5284,0.1846 c 18.9907,0.1015 33.1784,0.5291 31.5283,0.9501 -2.5899,0.6611 -2.8592,1.7789 -1.9688,8.1729 0.5672,4.0739 5.4221,39.6428 10.7886,79.0422 15.9696,117.2441 15.1767,112.1055 16.3328,105.8609 0.5672,-3.0644 3.2288,-21.6895 5.9145,-41.3892 5.4677,-40.1051 12.6645,-92.6434 17.4398,-127.314 2.4257,-17.6109 2.7236,-23.3315 1.2636,-24.26 -1.0508,-0.6681 37.7423,-1.0431 86.2069,-0.8334 l 88.1175,0.3817 0.4351,30.644 0.4351,30.6438 h -27.2709 -27.2709 v 37.4094 37.4096 h 27.2363 27.2363 v 31.0419 31.0419 h -27.2363 -27.2363 v 38.2054 38.2054 h 27.2363 27.2363 v 30.1134 c 0,21.6581 0.5289,30.2883 1.8834,30.737 1.0358,0.343 -25.2792,0.6238 -58.4779,0.6238 h -60.3614 l -0.1926,-146.5472 c -0.1922,-146.3907 -0.1958,-146.5295 -3.0668,-129.8325 -1.5807,9.1933 -8.7576,53.6069 -15.9485,98.6974 -7.191,45.0904 -16.2798,102.0403 -20.1973,126.5554 -3.9175,24.5151 -7.255,46.0624 -7.4166,47.8827 -0.2883,3.2478 -0.96,3.3074 -35.8817,3.1838 -19.5733,-0.07 -35.9076,-0.4841 -36.2984,-0.9219 -0.3908,-0.4377 -8.1944,-45.4973 -17.3415,-100.1324 -12.9644,-77.4349 -16.9094,-98.1426 -17.8932,-93.9216 -5.7257,24.565 -14.6215,42.1611 -28.4905,56.3554 l -7.7771,7.9594 15.7267,53.3284 c 22.4214,76.0299 22.4445,76.1024 24.5195,76.7897 1.0354,0.3429 -13.9386,0.6055 -33.2755,0.5835 -19.3368,-0.024 -33.8663,-0.3056 -32.2876,-0.6306 1.8099,-0.3725 2.5811,-1.5721 2.0875,-3.2471 -0.4306,-1.4609 -6.6269,-24.8632 -13.7696,-52.0049 -7.1427,-27.1419 -13.3576,-50.6023 -13.8109,-52.1345 -0.8452,-2.8568 -4.9706,-3.5005 -11.4227,-1.7825 l -3.6048,0.9599 v 53.822 c 0,49.9699 0.2006,53.8646 2.8037,54.4198 1.542,0.3286 -11.7957,0.575 -29.6395,0.5469 l -32.4432,-0.051 z m 78.7048,-6.6571 c 7.6978,-5.0615 15.0548,-16.1088 18.4628,-27.7237 3.6662,-12.4943 2.3939,-38.0201 -2.4381,-48.9154 -4.5227,-10.1979 -13.337,-18.8601 -22.4343,-22.0473 -14.1558,-4.9594 -13.0162,-9.4318 -13.0162,51.0818 v 53.5381 l 6.5232,-0.8693 c 3.5876,-0.4782 9.3939,-2.757 12.9026,-5.0642 z m 363.4846,6.7267 v -168.361 l 30.841,-3e-4 30.8412,-10e-5 -0.4181,137.6988 -0.4181,137.6989 h 26.1952 26.1953 l -0.143,29.3177 c -0.078,16.1247 0.5461,30.2191 -0.1634,30.9238 -0.7093,0.7046 -27.3926,0.9848 -57.7447,1.0197 l -55.1855,0.063 z"
     id="path6108"
     sodipodi:nodetypes="ccssssccsssssssscccccccccccccccccssscssssscsssscsscssssscscsccssssscsscccccccccsscc" />
  <g
     id="g6908"
     transform="matrix(-1.3121921,0,0,1.4735703,356.63176,-85.2635)">
    <path
       d="M 136.02104,0.341 9.2639472,44.95 29.294947,211.022 l 106.860093,58.732 107.412,-59.528 20.023,-166.066 z"
       fill="#b3b3b3"
       id="path6887" />
    <path
       d="m 251.12986,53.758 -115.222,-39.292 v 241.256 l 96.561,-53.441 18.66,-148.523 z"
       fill="#a6120d"
       id="path6889" />
    <path
       d="m 23.609665,54.466 17.165,148.525 95.070035,52.731 V 14.462 L 23.610665,54.465 Z"
       fill="#dd1b16"
       id="path6891" />
    <path
       d="m 167.56385,142.898 -31.717,14.832 h -33.42901 l -15.714043,39.305 -29.228,0.54 78.371053,-174.348 31.717,119.672 z m -3.066,-7.467 -28.44,-56.303 -23.329,55.334 h 23.117 l 28.652,0.97 z"
       fill="#f2f2f2"
       id="path6893" />
    <path
       d="m 135.81538,23.226 0.21,55.902 26.47,55.377 h -26.62 l -0.06,23.189 36.81,0.035 17.204,39.852 27.967,0.518 z"
       fill="#b3b3b3"
       id="path6895" />
  </g>
</svg>
